<svg width="32" height="32" viewBox="-5 -5 32 32" fill="none" xmlns="http://www.w3.org/2000/svg">
<path d="M4.22086 21.0203C3.93938 21.0203 3.70551 20.8004 3.68941 20.5182L2.72312 3.47024H0.53216C0.238772 3.47024 0 3.23077 0 2.93808C0 2.64469 0.238772 2.40522 0.53216 2.40522H3.04591L3.15445 2.42273L3.22797 2.40592H6.84875V0.53216C6.84875 0.238772 7.08682 0 7.38091 0H13.6401C13.9335 0 14.1722 0.238772 14.1722 0.53216V2.40592H17.7951L17.9177 2.42553L18.0003 2.40592H20.4888C20.7822 2.40592 21.021 2.64539 21.021 2.93878C21.021 3.23147 20.7822 3.47094 20.4888 3.47094H18.2986L17.3463 20.5182C17.3302 20.7997 17.097 21.021 16.8148 21.021H4.22086V21.0203ZM4.72292 19.956H16.3107L17.2322 3.47024H3.78814L4.72292 19.956ZM7.91237 2.40592H13.1079V1.06432H7.91237V2.40592Z" fill="#C70000"/>
<path d="M6.52033 5.04919C6.34598 5.0576 6.21574 5.12062 6.12121 5.22565C6.02668 5.33208 5.97907 5.46932 5.98677 5.61146L6.68558 17.9408C6.70238 18.2215 6.93555 18.4421 7.21704 18.4421V18.5751L7.24855 18.4421C7.54053 18.4253 7.7646 18.1725 7.7492 17.8791L7.04969 5.55124C7.03288 5.26976 6.80041 5.04919 6.52033 5.04919Z" fill="#C70000"/>
<path d="M14.5077 5.04993C14.1961 5.04993 13.9643 5.26979 13.9475 5.55128L13.2473 17.8792C13.2319 18.1726 13.456 18.4246 13.7494 18.4421L13.7802 18.5752V18.4421C14.0617 18.4421 14.2948 18.2223 14.3102 17.9408L15.0112 5.6115C15.0189 5.46935 14.9705 5.33281 14.8767 5.22568C14.7815 5.12065 14.652 5.05763 14.5105 5.04993C14.5091 5.04993 14.5084 5.04993 14.5077 5.04993Z" fill="#C70000"/>
<path d="M10.5102 5.04919C10.2168 5.04919 9.97803 5.28797 9.97803 5.58135V17.91C9.97803 18.2033 10.2168 18.4421 10.5102 18.4421C10.8036 18.4421 11.0423 18.2033 11.0423 17.91V5.58135C11.0423 5.28797 10.8036 5.04919 10.5102 5.04919Z" fill="#C70000"/>
</svg>
